<?xml version="1.0" standalone="no"?>
<!DOCTYPE svg PUBLIC "-//W3C//DTD SVG 20010904//EN"
 "http://www.w3.org/TR/2001/REC-SVG-20010904/DTD/svg10.dtd">
<svg version="1.0" xmlns="http://www.w3.org/2000/svg"
 width="360.000000pt" height="324.000000pt" viewBox="0 0 360.000000 324.000000"
 preserveAspectRatio="xMidYMid meet">

<g transform="translate(0.000000,324.000000) scale(0.100000,-0.100000)"
fill="#000000" stroke="none">
<path d="M306 3229 c-62 -15 -153 -68 -197 -116 -22 -24 -55 -74 -72 -111
l-32 -67 0 -910 0 -910 32 -67 c44 -93 100 -151 191 -196 76 -37 76 -37 224
-40 l148 -4 0 -405 0 -404 152 129 c84 70 300 253 480 405 l327 277 869 2 868
3 76 37 c91 45 147 103 191 196 l32 67 0 910 0 910 -32 67 c-44 93 -100 151
-191 196 l-76 37 -1475 2 c-867 0 -1492 -3 -1515 -8z m2947 -200 c49 -13 105
-63 128 -114 18 -38 19 -89 19 -890 0 -801 -1 -852 -19 -890 -23 -51 -79 -101
-128 -114 -25 -7 -344 -11 -948 -11 l-910 0 -295 -199 -295 -199 -3 199 -2
199 -208 0 c-114 0 -224 5 -245 11 -49 13 -105 63 -128 114 -18 38 -19 89 -19
890 0 806 1 852 19 890 24 51 68 93 117 110 32 12 279 14 1459 15 961 0 1432
-3 1458 -11z"/>
<path d="M909 2202 c-94 -49 -133 -162 -90 -257 30 -68 113 -125 181 -125 37
0 94 24 127 53 75 66 92 158 45 248 -22 43 -38 59 -81 81 -31 16 -69 28 -91
28 -22 0 -60 -12 -91 -28z"/>
<path d="M1709 2202 c-94 -49 -133 -162 -90 -257 58 -129 226 -162 322 -62 62
65 74 155 31 238 -22 43 -38 59 -81 81 -31 16 -69 28 -91 28 -22 0 -60 -12
-91 -28z"/>
<path d="M2509 2202 c-94 -49 -133 -162 -90 -257 70 -155 281 -162 356 -11 53
106 16 219 -89 271 -65 32 -111 32 -177 -3z"/>
</g>
</svg>
