<?xml version="1.0" standalone="no"?>
<!DOCTYPE svg PUBLIC "-//W3C//DTD SVG 20010904//EN"
 "http://www.w3.org/TR/2001/REC-SVG-20010904/DTD/svg10.dtd">
<svg version="1.0" xmlns="http://www.w3.org/2000/svg"
 width="200.000000pt" height="200.000000pt" viewBox="0 0 200.000000 200.000000"
 preserveAspectRatio="xMidYMid meet">
<metadata>
Created by potrace 1.16, written by Peter Selinger 2001-2019
</metadata>
<g transform="translate(0.000000,200.000000) scale(0.100000,-0.100000)"
fill="#000000" stroke="none">
<path d="M915 1459 c-36 -14 -60 -32 -84 -65 -31 -41 -34 -51 -35 -117 0 -57
4 -80 23 -113 57 -102 197 -133 299 -67 60 39 86 93 86 178 0 64 -2 74 -34
117 -27 36 -48 52 -88 68 -65 25 -103 25 -167 -1z m180 -101 c25 -29 27 -38
23 -101 -5 -85 -24 -104 -108 -109 -96 -5 -130 28 -130 127 0 43 5 59 26 84
24 29 30 31 94 31 64 0 70 -2 95 -32z"/>
<path d="M893 940 c-125 -14 -237 -85 -291 -187 -19 -36 -22 -55 -20 -125 l3
-83 408 -3 407 -2 0 90 c0 102 -9 127 -68 192 -45 50 -92 80 -157 101 -63 20
-188 27 -282 17z m295 -106 c75 -37 129 -102 134 -160 2 -26 -1 -48 -7 -50 -6
-3 -154 -3 -330 -2 l-320 3 -3 47 c-3 44 -1 49 50 100 76 75 112 86 284 87
131 1 143 -1 192 -25z"/>
</g>
</svg>
